<svg xmlns="http://www.w3.org/2000/svg" width="127.958" height="106.63" viewBox="0 0 127.958 106.63">
  <defs>
    <style>
      .cls-1 {
        fill: #fff;
      }
    </style>
  </defs>
  <g id="ic_camera" transform="translate(0 0)">
    <path id="패스_217" data-name="패스 217" class="cls-1" d="M311.206,260.6a19.8,19.8,0,1,1-19.8-19.8,19.8,19.8,0,0,1,19.8,19.8" transform="translate(-227.423 -201.196)"/>
    <path id="패스_218" data-name="패스 218" class="cls-1" d="M126.409,201.835h93.378a17.326,17.326,0,0,0,17.366-17.212V129.175a17.293,17.293,0,0,0-17.213-17.212H205.011a2.892,2.892,0,0,1-2.894-2.895v-1.523a12.417,12.417,0,0,0-12.492-12.338h-32.9a12.517,12.517,0,0,0-12.492,12.338v1.523a2.892,2.892,0,0,1-2.895,2.895H126.408a17.293,17.293,0,0,0-17.213,17.212v55.3a17.326,17.326,0,0,0,17.213,17.366Zm90.941-77.688a6.093,6.093,0,1,1-6.093,6.093A6.093,6.093,0,0,1,217.35,124.147Zm-44.176-1.523a31.989,31.989,0,1,1-31.989,31.989,31.989,31.989,0,0,1,31.989-31.989Z" transform="translate(-109.194 -95.206)"/>
  </g>
</svg>
