<svg xmlns="http://www.w3.org/2000/svg" width="89.731" height="144.306" viewBox="0 0 89.731 144.306">
  <defs>
    <style>
      .cls-1 {
        fill: #fff;
      }
    </style>
  </defs>
  <g id="ic_mike" transform="translate(0)">
    <path id="패스_254" data-name="패스 254" class="cls-1" d="M309.857,105.879a23.95,23.95,0,1,1-47.9,0V55.123a23.95,23.95,0,0,1,47.9,0Z" transform="translate(-241.038 -28.194)"/>
    <path id="패스_255" data-name="패스 255" class="cls-1" d="M298.937,97.905c0,.759-.03,1.517-.1,2.276-.03.268-.253,1.278-.045.431-.1.387-.134.8-.208,1.205a23.465,23.465,0,0,1-1.175,4.017c-.03.06-.045.119-.074.178-.119.3-.1.238.074-.163a1.274,1.274,0,0,1-.163.357c-.149.326-.3.654-.462.982q-.513,1-1.115,1.964c-.342.55-.729,1.086-1.1,1.607s.326-.387.045-.06c-.1.119-.208.253-.312.372-.253.3-.506.6-.774.878-.431.476-.892.937-1.369,1.383-.268.238-.521.476-.8.714-.119.1-.253.208-.372.312s-.208.163-.3.238c.326-.238.387-.3.223-.163a30.322,30.322,0,0,1-3.555,2.231c-.3.149-.58.3-.878.431a1.906,1.906,0,0,1-.536.238c.045,0,.669-.268.163-.074-.684.268-1.368.506-2.067.714s-1.428.387-2.142.536c-.326.06-.669.119-1,.178-.55.089.134,0,.178-.015a2.94,2.94,0,0,1-.818.089,23.7,23.7,0,0,1-4.359.015,3.935,3.935,0,0,1-1.026-.1l.387.045c-.134-.015-.268-.045-.4-.06-.163-.03-.326-.06-.506-.089a19.7,19.7,0,0,1-2.246-.536c-.64-.178-1.264-.4-1.889-.626a4.238,4.238,0,0,0-.462-.178c-.416-.134.684.312.074.03-.357-.163-.714-.326-1.071-.506a25.01,25.01,0,0,1-3.57-2.2.324.324,0,0,1-.074-.06c-.253-.193-.208-.163.134.1-.119-.015-.357-.3-.462-.372-.253-.208-.49-.416-.729-.64-.536-.476-1.041-.982-1.532-1.5-.223-.238-.431-.476-.654-.729-.119-.134-.595-.55-.626-.759.074.1.149.193.223.3-.074-.1-.163-.208-.238-.312l-.223-.312c-.223-.312-.446-.64-.654-.967-.387-.61-.744-1.22-1.086-1.86-.149-.3-.3-.58-.431-.878-.06-.119-.1-.238-.163-.357s-.1-.238-.163-.357c.163.4.193.462.074.163a24.972,24.972,0,0,1-1.205-4.017c-.074-.326-.134-.669-.178-1-.015-.074-.015-.134-.03-.208-.045-.326-.045-.268.015.178a1.885,1.885,0,0,1-.06-.506,21.075,21.075,0,0,1-.134-2.38V46.91c0-.7.045-1.383.1-2.067.015-.208.045-.4.06-.61.045-.416-.1.03-.03.178-.1-.208.163-.937.208-1.205a26.275,26.275,0,0,1,1.25-4.21c.119-.3-.06-.208-.074.163a1.907,1.907,0,0,1,.238-.536c.134-.3.283-.595.431-.878q.49-.959,1.071-1.874c.342-.55.729-1.086,1.1-1.607.4-.55-.431.521.015-.015.1-.119.208-.253.312-.372.253-.3.506-.595.774-.878.462-.506.937-.982,1.442-1.442.238-.223.476-.431.729-.64.119-.1.253-.208.372-.312.58-.49-.387.283.089-.074a27.2,27.2,0,0,1,3.482-2.172c.326-.163.64-.326.982-.476a1.453,1.453,0,0,1,.446-.193c-.119.045-.238.1-.342.149.119-.045.238-.1.372-.149a21.118,21.118,0,0,1,2.067-.7c.64-.178,1.294-.342,1.949-.476.326-.06.669-.119,1-.178.714-.119-.7.074.015,0,.208-.03.4-.045.61-.06a23.423,23.423,0,0,1,4.567,0c.268.03,1.278.253.431.045.326.089.669.1,1,.163a21.663,21.663,0,0,1,2.157.521c.64.178,1.264.4,1.889.626.119.045.476.119.55.223-.119-.045-.238-.1-.342-.149.089.045.178.074.268.119.357.163.714.326,1.071.506a26.893,26.893,0,0,1,3.57,2.216c.536.387-.387-.326-.06-.045.119.1.253.208.372.312.253.208.49.416.729.64.536.476,1.041.982,1.532,1.5.238.268.476.521.714.8.1.119.208.253.312.372.045.045.074.1.119.149.193.253.163.208-.1-.149a3.488,3.488,0,0,1,.58.789c.223.312.446.64.654.982q.513.826.982,1.7c.149.3.3.58.431.878.089.178.163.357.238.536.283.626-.238-.626,0,.015a25.822,25.822,0,0,1,1.25,4.21c.06.326.119.669.178,1,.089.55,0-.134-.015-.178a2.079,2.079,0,0,1,.074.61q.112,1.138.134,2.276V97.9a2.975,2.975,0,1,0,5.951,0V49.81a48.782,48.782,0,0,0-.326-6.754,26.9,26.9,0,0,0-53.044-.8,42.593,42.593,0,0,0-.462,7.274V83.371c0,4.85-.015,9.684,0,14.534a27.324,27.324,0,0,0,6.011,16.944,26.907,26.907,0,0,0,47.826-16.914,2.975,2.975,0,0,0-5.951-.03Z" transform="translate(-233.095 -20.22)"/>
    <path id="패스_256" data-name="패스 256" class="cls-1" d="M185.059,288.328a44.671,44.671,0,0,0,8,25.542,51.837,51.837,0,0,0,4.656,5.7,47.69,47.69,0,0,0,5.489,4.76,44.708,44.708,0,0,0,60.99-7.081,50.138,50.138,0,0,0,4.2-5.817,47.794,47.794,0,0,0,3.258-6.68,44.2,44.2,0,0,0,3.019-13.284c.089-1.041.119-2.083.119-3.124a5.95,5.95,0,0,0-11.9,0,39.935,39.935,0,0,1-.342,5.162c.074-.521.149-1.056.208-1.578a39.153,39.153,0,0,1-2.737,10.026c.193-.476.4-.952.6-1.428a39.609,39.609,0,0,1-5.043,8.6l.937-1.205a40.042,40.042,0,0,1-7.007,7.007l1.205-.937a39.61,39.61,0,0,1-8.6,5.044c.476-.193.952-.4,1.428-.595a39.146,39.146,0,0,1-10.026,2.737c.521-.074,1.056-.149,1.578-.208a39.97,39.97,0,0,1-10.324,0c.521.074,1.056.149,1.578.208a39.154,39.154,0,0,1-10.026-2.737c.476.193.952.4,1.428.6a39.608,39.608,0,0,1-8.6-5.042l1.205.937a40.041,40.041,0,0,1-7.007-7.007l.937,1.205a39.608,39.608,0,0,1-5.043-8.6c.193.476.4.952.6,1.428a39.146,39.146,0,0,1-2.738-10.026c.074.521.149,1.056.208,1.578a39.94,39.94,0,0,1-.342-5.162,5.95,5.95,0,0,0-11.9-.015Z" transform="translate(-185.058 -211.072)"/>
    <path id="패스_257" data-name="패스 257" class="cls-1" d="M340.031,453.532v-22.18a5.95,5.95,0,1,0-11.9,0v22.18a5.95,5.95,0,1,0,11.9,0Z" transform="translate(-289.212 -315.182)"/>
    <path id="패스_258" data-name="패스 258" class="cls-1" d="M242.571,518.851h49.76a5.95,5.95,0,0,0,0-11.9h-49.76a5.95,5.95,0,0,0,0,11.9Z" transform="translate(-222.591 -374.551)"/>
  </g>
</svg>
