<?xml version="1.0" encoding="UTF-8"?>
<svg width="700pt" height="700pt" version="1.1" viewBox="0 0 700 700" xmlns="http://www.w3.org/2000/svg" xmlns:xlink="http://www.w3.org/1999/xlink">
 <defs>
  <symbol id="v" overflow="visible">
   <path d="m1.8281-0.10938c-0.09375 0.054688-0.19531 0.089844-0.29688 0.10938-0.09375 0.019531-0.19922 0.03125-0.3125 0.03125-0.33594 0-0.60156-0.085938-0.79688-0.26562-0.1875-0.1875-0.28125-0.44141-0.28125-0.76562 0-0.3125 0.09375-0.5625 0.28125-0.75 0.19531-0.1875 0.46094-0.28125 0.79688-0.28125 0.11328 0 0.21875 0.015625 0.3125 0.046875 0.10156 0.023437 0.20312 0.058594 0.29688 0.10938v0.40625c-0.09375-0.0625-0.1875-0.10938-0.28125-0.14062s-0.19531-0.046875-0.29688-0.046875c-0.17969 0-0.32031 0.0625-0.42188 0.1875-0.10547 0.11719-0.15625 0.27344-0.15625 0.46875 0 0.21094 0.050781 0.375 0.15625 0.5 0.10156 0.11719 0.24219 0.17188 0.42188 0.17188 0.10156 0 0.20312-0.015625 0.29688-0.046875s0.1875-0.078125 0.28125-0.14062z"/>
  </symbol>
  <symbol id="f" overflow="visible">
   <path d="m1.3438-1.0938c-0.042969-0.019531-0.085938-0.03125-0.125-0.03125-0.042969-0.007812-0.085938-0.015625-0.125-0.015625-0.125 0-0.22656 0.042969-0.29688 0.125-0.0625 0.074219-0.09375 0.18359-0.09375 0.32812v0.6875h-0.46875v-1.5h0.46875v0.25c0.0625-0.09375 0.12891-0.16016 0.20312-0.20312 0.082031-0.050781 0.17969-0.078125 0.29688-0.078125h0.046875c0.019531 0 0.050781 0.007812 0.09375 0.015625z"/>
  </symbol>
  <symbol id="a" overflow="visible">
   <path d="m1.7188-0.75v0.14062h-1.1094c0.007813 0.10547 0.046875 0.1875 0.10938 0.25 0.070312 0.054687 0.17188 0.078125 0.29688 0.078125 0.10156 0 0.20703-0.015625 0.3125-0.046875 0.10156-0.03125 0.21094-0.070313 0.32812-0.125v0.35938c-0.11719 0.042969-0.23047 0.074219-0.34375 0.09375-0.11719 0.019531-0.23047 0.03125-0.34375 0.03125-0.27344 0-0.48047-0.066406-0.625-0.20312-0.14844-0.13281-0.21875-0.32812-0.21875-0.57812 0-0.23828 0.070312-0.42578 0.21875-0.5625 0.14453-0.14453 0.34766-0.21875 0.60938-0.21875 0.22656 0 0.41016 0.074219 0.54688 0.21875 0.14453 0.13672 0.21875 0.32422 0.21875 0.5625zm-0.48438-0.15625c0-0.09375-0.027344-0.16406-0.078125-0.21875-0.054688-0.0625-0.125-0.09375-0.21875-0.09375-0.085938 0-0.15625 0.027344-0.21875 0.078125-0.0625 0.054687-0.10156 0.13281-0.10938 0.23438z"/>
  </symbol>
  <symbol id="e" overflow="visible">
   <path d="m0.90625-0.67188c-0.10547 0-0.18359 0.015625-0.23438 0.046875-0.054687 0.03125-0.078125 0.085938-0.078125 0.15625 0 0.0625 0.019531 0.10938 0.0625 0.14062 0.039062 0.03125 0.097656 0.046875 0.17188 0.046875 0.09375 0 0.16406-0.03125 0.21875-0.09375 0.0625-0.0625 0.09375-0.14453 0.09375-0.25v-0.046875zm0.71875-0.1875v0.85938h-0.48438v-0.21875c-0.0625 0.09375-0.13672 0.16406-0.21875 0.20312-0.074219 0.03125-0.16797 0.046875-0.28125 0.046875-0.15625 0-0.28125-0.039062-0.375-0.125-0.09375-0.09375-0.14062-0.21094-0.14062-0.35938 0-0.17578 0.054688-0.30078 0.17188-0.375 0.125-0.082031 0.3125-0.125 0.5625-0.125h0.28125v-0.046875c0-0.070312-0.03125-0.125-0.09375-0.15625-0.054687-0.039062-0.14062-0.0625-0.26562-0.0625-0.10547 0-0.20312 0.011719-0.29688 0.03125-0.085937 0.023438-0.16406 0.054688-0.23438 0.09375v-0.35938c0.10156-0.03125 0.20703-0.050781 0.3125-0.0625 0.10156-0.007813 0.20312-0.015625 0.29688-0.015625 0.26953 0 0.46094 0.054688 0.57812 0.15625 0.125 0.10547 0.1875 0.27734 0.1875 0.51562z"/>
  </symbol>
  <symbol id="d" overflow="visible">
   <path d="m0.75-1.9219v0.42188h0.5v0.34375h-0.5v0.64062c0 0.0625 0.007812 0.10938 0.03125 0.14062 0.03125 0.023438 0.085938 0.03125 0.17188 0.03125h0.25v0.34375h-0.40625c-0.1875 0-0.32422-0.035156-0.40625-0.10938-0.074219-0.082031-0.10938-0.21875-0.10938-0.40625v-0.64062h-0.25v-0.34375h0.25v-0.42188z"/>
  </symbol>
  <symbol id="k" overflow="visible">
   <path d="m1.25-1.2812v-0.79688h0.48438v2.0781h-0.48438v-0.21875c-0.074219 0.09375-0.15234 0.16406-0.23438 0.20312-0.074219 0.03125-0.16406 0.046875-0.26562 0.046875-0.17969 0-0.32812-0.070312-0.45312-0.21875-0.11719-0.14453-0.17188-0.33203-0.17188-0.5625 0-0.22656 0.054688-0.41406 0.17188-0.5625 0.125-0.14453 0.27344-0.21875 0.45312-0.21875 0.10156 0 0.19141 0.023438 0.26562 0.0625 0.082031 0.042969 0.16016 0.10547 0.23438 0.1875zm-0.3125 0.96875c0.09375 0 0.16406-0.035156 0.21875-0.10938 0.0625-0.070313 0.09375-0.17969 0.09375-0.32812 0-0.13281-0.03125-0.23828-0.09375-0.3125-0.054688-0.082031-0.125-0.125-0.21875-0.125-0.10547 0-0.18359 0.042969-0.23438 0.125-0.054687 0.074219-0.078125 0.17969-0.078125 0.3125 0 0.14844 0.023438 0.25781 0.078125 0.32812 0.050781 0.074219 0.12891 0.10938 0.23438 0.10938z"/>
  </symbol>
  <symbol id="j" overflow="visible">
   <path d="m1.0312-0.3125c0.09375 0 0.16406-0.035156 0.21875-0.10938 0.0625-0.070313 0.09375-0.17969 0.09375-0.32812 0-0.13281-0.03125-0.23828-0.09375-0.3125-0.054688-0.082031-0.125-0.125-0.21875-0.125-0.10547 0-0.1875 0.042969-0.25 0.125-0.054688 0.074219-0.078125 0.17969-0.078125 0.3125 0 0.14844 0.023437 0.25781 0.078125 0.32812 0.0625 0.074219 0.14453 0.10938 0.25 0.10938zm-0.32812-0.96875c0.070313-0.082031 0.14453-0.14453 0.21875-0.1875 0.082031-0.039062 0.17578-0.0625 0.28125-0.0625 0.1875 0 0.33594 0.074219 0.45312 0.21875 0.11328 0.14844 0.17188 0.33594 0.17188 0.5625 0 0.23047-0.058594 0.41797-0.17188 0.5625-0.11719 0.14844-0.26562 0.21875-0.45312 0.21875-0.10547 0-0.19922-0.015625-0.28125-0.046875-0.074219-0.039062-0.14844-0.10938-0.21875-0.20312v0.21875h-0.46875v-2.0781h0.46875z"/>
  </symbol>
  <symbol id="i" overflow="visible">
   <path d="m0.03125-1.5h0.48438l0.39062 1.0156 0.34375-1.0156h0.48438l-0.625 1.6406c-0.0625 0.16406-0.14062 0.28125-0.23438 0.34375-0.085938 0.070313-0.19531 0.10938-0.32812 0.10938h-0.26562v-0.3125h0.14062c0.082031 0 0.14062-0.015625 0.17188-0.046875 0.039062-0.023437 0.070312-0.070313 0.09375-0.14062l0.015625-0.03125z"/>
  </symbol>
  <symbol id="c" overflow="visible">
   <path d="m1.3906-1.4531v0.375c-0.09375-0.050781-0.19531-0.085937-0.29688-0.10938-0.09375-0.019531-0.18359-0.03125-0.26562-0.03125-0.085937 0-0.15234 0.015625-0.20312 0.046875-0.042969 0.023437-0.0625 0.054687-0.0625 0.09375 0 0.042969 0.015625 0.074219 0.046875 0.09375 0.03125 0.023437 0.09375 0.039063 0.1875 0.046875l0.078125 0.015625c0.25 0.03125 0.41406 0.085937 0.5 0.15625 0.082031 0.0625 0.125 0.17188 0.125 0.32812s-0.0625 0.27734-0.1875 0.35938c-0.11719 0.074219-0.28906 0.10938-0.51562 0.10938-0.10547 0-0.21094-0.011719-0.3125-0.03125-0.10547-0.0078125-0.21094-0.03125-0.3125-0.0625v-0.35938c0.09375 0.054687 0.1875 0.089844 0.28125 0.10938 0.10156 0.023438 0.20703 0.03125 0.3125 0.03125 0.09375 0 0.16016-0.007812 0.20312-0.03125 0.050781-0.03125 0.078125-0.070312 0.078125-0.125 0-0.039062-0.015625-0.070312-0.046875-0.09375-0.03125-0.019531-0.10156-0.035156-0.20312-0.046875l-0.078125-0.015625c-0.21875-0.019531-0.37109-0.066406-0.45312-0.14062-0.085937-0.070313-0.125-0.17969-0.125-0.32812 0-0.15625 0.050781-0.26953 0.15625-0.34375 0.11328-0.082031 0.28125-0.125 0.5-0.125 0.09375 0 0.1875 0.011719 0.28125 0.03125 0.10156 0.011719 0.20703 0.027344 0.3125 0.046875z"/>
  </symbol>
  <symbol id="b" overflow="visible">
   <path d="m1.7344-0.90625v0.90625h-0.48438v-0.6875c0-0.13281-0.007812-0.22266-0.015625-0.26562 0-0.050781-0.007813-0.09375-0.015625-0.125-0.023438-0.03125-0.046875-0.050781-0.078125-0.0625-0.03125-0.019531-0.070313-0.03125-0.10938-0.03125-0.10547 0-0.1875 0.042969-0.25 0.125-0.054688 0.074219-0.078125 0.17969-0.078125 0.3125v0.73438h-0.46875v-2.0781h0.46875v0.79688c0.070313-0.082031 0.14844-0.14453 0.23438-0.1875 0.082031-0.039062 0.17188-0.0625 0.26562-0.0625 0.17578 0 0.30469 0.054688 0.39062 0.15625 0.09375 0.10547 0.14062 0.26172 0.14062 0.46875z"/>
  </symbol>
  <symbol id="h" overflow="visible">
   <path d="m1.7344-0.90625v0.90625h-0.48438v-0.70312c0-0.125-0.007812-0.20703-0.015625-0.25 0-0.050781-0.007813-0.09375-0.015625-0.125-0.023438-0.03125-0.046875-0.050781-0.078125-0.0625-0.03125-0.019531-0.070313-0.03125-0.10938-0.03125-0.10547 0-0.1875 0.042969-0.25 0.125-0.054688 0.074219-0.078125 0.17969-0.078125 0.3125v0.73438h-0.46875v-1.5h0.46875v0.21875c0.070313-0.082031 0.14844-0.14453 0.23438-0.1875 0.082031-0.039062 0.17188-0.0625 0.26562-0.0625 0.17578 0 0.30469 0.054688 0.39062 0.15625 0.09375 0.10547 0.14062 0.26172 0.14062 0.46875z"/>
  </symbol>
  <symbol id="u" overflow="visible">
   <path d="m0.23438-2.0781h0.46875v1.125l0.54688-0.54688h0.5625l-0.73438 0.6875 0.79688 0.8125h-0.57812l-0.59375-0.625v0.625h-0.46875z"/>
  </symbol>
  <symbol id="t" overflow="visible">
   <path d="m0.23438-1.5h0.46875v1.5h-0.46875zm0-0.57812h0.46875v0.39062h-0.46875z"/>
  </symbol>
  <symbol id="s" overflow="visible">
   <path d="m1.25-0.25c-0.074219 0.085938-0.15234 0.14844-0.23438 0.1875-0.074219 0.042969-0.16406 0.0625-0.26562 0.0625-0.17969 0-0.32812-0.070312-0.45312-0.21875-0.11719-0.14453-0.17188-0.32812-0.17188-0.54688s0.054688-0.39844 0.17188-0.54688c0.125-0.14453 0.27344-0.21875 0.45312-0.21875 0.10156 0 0.19141 0.023438 0.26562 0.0625 0.082031 0.042969 0.16016 0.10547 0.23438 0.1875v-0.21875h0.48438v1.3438c0 0.23828-0.078125 0.42188-0.23438 0.54688-0.15625 0.13281-0.375 0.20312-0.65625 0.20312-0.09375 0-0.1875-0.011719-0.28125-0.03125-0.085938-0.011719-0.16797-0.03125-0.25-0.0625v-0.375c0.082031 0.050781 0.16016 0.085938 0.23438 0.10938 0.082031 0.03125 0.16406 0.046875 0.25 0.046875 0.15625 0 0.26953-0.039062 0.34375-0.10938 0.070313-0.074219 0.10938-0.17969 0.10938-0.32812zm-0.3125-0.9375c-0.10547 0-0.18359 0.039062-0.23438 0.10938-0.054687 0.074219-0.078125 0.17969-0.078125 0.3125 0 0.13672 0.023438 0.24219 0.078125 0.3125 0.050781 0.074219 0.12891 0.10938 0.23438 0.10938 0.09375 0 0.16406-0.035156 0.21875-0.10938 0.0625-0.070313 0.09375-0.17578 0.09375-0.3125 0-0.13281-0.03125-0.23828-0.09375-0.3125-0.054688-0.070313-0.125-0.10938-0.21875-0.10938z"/>
  </symbol>
  <symbol id="r" overflow="visible">
   <path d="m1.2188-2.0781v0.3125h-0.26562c-0.074219 0-0.125 0.015625-0.15625 0.046875-0.023437 0.023438-0.03125 0.0625-0.03125 0.125v0.09375h0.40625v0.34375h-0.40625v1.1562h-0.46875v-1.1562h-0.25v-0.34375h0.25v-0.09375c0-0.16406 0.039063-0.28516 0.125-0.35938 0.09375-0.082031 0.23438-0.125 0.42188-0.125z"/>
  </symbol>
  <symbol id="g" overflow="visible">
   <path d="m0.9375-1.1875c-0.10547 0-0.1875 0.039062-0.25 0.10938-0.054688 0.074219-0.078125 0.18359-0.078125 0.32812 0 0.14844 0.023437 0.26172 0.078125 0.34375 0.0625 0.074219 0.14453 0.10938 0.25 0.10938 0.10156 0 0.17969-0.035156 0.23438-0.10938 0.0625-0.082031 0.09375-0.19531 0.09375-0.34375 0-0.14453-0.03125-0.25391-0.09375-0.32812-0.054687-0.070313-0.13281-0.10938-0.23438-0.10938zm0-0.34375c0.25781 0 0.46094 0.074219 0.60938 0.21875 0.14453 0.13672 0.21875 0.32422 0.21875 0.5625 0 0.25-0.074219 0.44531-0.21875 0.57812-0.14844 0.13672-0.35156 0.20312-0.60938 0.20312-0.26172 0-0.46484-0.066406-0.60938-0.20312-0.13672-0.13281-0.20312-0.32812-0.20312-0.57812 0-0.23828 0.066406-0.42578 0.20312-0.5625 0.14453-0.14453 0.34766-0.21875 0.60938-0.21875z"/>
  </symbol>
  <symbol id="q" overflow="visible">
   <path d="m1.6094-1.25c0.0625-0.09375 0.13281-0.16016 0.21875-0.20312 0.082031-0.050781 0.17578-0.078125 0.28125-0.078125 0.16406 0 0.29688 0.054688 0.39062 0.15625 0.09375 0.10547 0.14062 0.26172 0.14062 0.46875v0.90625h-0.48438v-0.78125-0.03125-0.0625c0-0.10156-0.015625-0.17578-0.046875-0.21875-0.03125-0.050781-0.085937-0.078125-0.15625-0.078125-0.085937 0-0.15234 0.039063-0.20312 0.10938-0.054688 0.074219-0.078125 0.18359-0.078125 0.32812v0.73438h-0.48438v-0.78125c0-0.16406-0.015625-0.26953-0.046875-0.3125-0.023437-0.050781-0.070313-0.078125-0.14062-0.078125-0.09375 0-0.16797 0.042969-0.21875 0.125-0.054688 0.074219-0.078125 0.17969-0.078125 0.3125v0.73438h-0.46875v-1.5h0.46875v0.21875c0.0625-0.082031 0.12891-0.14453 0.20312-0.1875 0.082031-0.039062 0.16406-0.0625 0.25-0.0625 0.10156 0 0.19141 0.027344 0.26562 0.078125 0.082031 0.054687 0.14453 0.12109 0.1875 0.20312z"/>
  </symbol>
  <symbol id="p" overflow="visible">
   <path d="m0.25-2h0.57812l0.71875 1.375v-1.375h0.48438v2h-0.5625l-0.73438-1.375v1.375h-0.48438z"/>
  </symbol>
  <symbol id="o" overflow="visible">
   <path d="m0.21875-0.57812v-0.92188h0.46875v0.15625 0.3125 0.23438 0.26562c0.007812 0.054688 0.023438 0.089844 0.046875 0.10938 0.019531 0.03125 0.046875 0.058594 0.078125 0.078125 0.03125 0.011719 0.066406 0.015625 0.10938 0.015625 0.09375 0 0.16406-0.035156 0.21875-0.10938 0.0625-0.070312 0.09375-0.17578 0.09375-0.3125v-0.75h0.48438v1.5h-0.48438v-0.21875c-0.074219 0.09375-0.15234 0.16406-0.23438 0.20312-0.074219 0.03125-0.15625 0.046875-0.25 0.046875-0.17969 0-0.3125-0.050781-0.40625-0.15625-0.085938-0.10156-0.125-0.25391-0.125-0.45312z"/>
  </symbol>
  <symbol id="n" overflow="visible">
   <path d="m0.25-2h0.85938c0.25 0 0.44141 0.058594 0.57812 0.17188 0.13281 0.11719 0.20312 0.27734 0.20312 0.48438 0 0.21094-0.070313 0.37109-0.20312 0.48438-0.13672 0.11719-0.32812 0.17188-0.57812 0.17188h-0.34375v0.6875h-0.51562zm0.51562 0.375v0.5625h0.28125c0.10156 0 0.17969-0.019531 0.23438-0.0625 0.050781-0.050781 0.078125-0.125 0.078125-0.21875s-0.027344-0.16016-0.078125-0.20312c-0.054688-0.050781-0.13281-0.078125-0.23438-0.078125z"/>
  </symbol>
  <symbol id="m" overflow="visible">
   <path d="m0.23438-1.5h0.46875v1.4688c0 0.20703-0.046875 0.36328-0.14062 0.46875-0.09375 0.10156-0.23438 0.15625-0.42188 0.15625h-0.23438v-0.3125h0.078125c0.09375 0 0.15625-0.023438 0.1875-0.0625 0.039063-0.042969 0.0625-0.125 0.0625-0.25zm0-0.57812h0.46875v0.39062h-0.46875z"/>
  </symbol>
  <symbol id="l" overflow="visible">
   <path d="m1.4375-1.4531v0.39062c-0.0625-0.039062-0.13281-0.070312-0.20312-0.09375-0.0625-0.019531-0.13281-0.03125-0.20312-0.03125-0.125 0-0.23047 0.042969-0.3125 0.125-0.074219 0.074219-0.10938 0.17969-0.10938 0.3125 0 0.14844 0.035156 0.26172 0.10938 0.34375 0.082031 0.074219 0.1875 0.10938 0.3125 0.10938 0.082031 0 0.15625-0.007813 0.21875-0.03125 0.070312-0.03125 0.13281-0.066406 0.1875-0.10938v0.39062c-0.074219 0.03125-0.15234 0.050781-0.23438 0.0625-0.074219 0.0078125-0.14844 0.015625-0.21875 0.015625-0.27344 0-0.48438-0.066406-0.64062-0.20312-0.14844-0.13281-0.21875-0.32812-0.21875-0.57812 0-0.23828 0.070312-0.42578 0.21875-0.5625 0.15625-0.14453 0.36719-0.21875 0.64062-0.21875 0.070313 0 0.14453 0.011719 0.21875 0.03125 0.082031 0.011719 0.16016 0.027344 0.23438 0.046875z"/>
  </symbol>
 </defs>
 <g>
  <path d="m438.05 305.81c0 48.617-39.43 88.047-88.047 88.047s-88.047-39.43-88.047-88.047v-186.59c0-48.617 39.43-88.047 88.047-88.047s88.047 39.43 88.047 88.047z"/>
  <path d="m427.11 305.81c0 2.7891-0.10938 5.5781-0.38281 8.3672-0.10937 0.98437-0.92969 4.7031-0.16406 1.5859-0.38281 1.4219-0.49219 2.9531-0.76562 4.4297-0.98438 5.0312-2.4609 10.008-4.3203 14.766-0.10937 0.21875-0.16406 0.4375-0.27344 0.65625-0.4375 1.0938-0.38281 0.875 0.27344-0.60156 0 0.27344-0.4375 1.0391-0.60156 1.3125-0.54688 1.2031-1.0938 2.4062-1.6953 3.6094-1.2578 2.4609-2.625 4.8672-4.1016 7.2188-1.2578 2.0234-2.6797 3.9922-4.0469 5.9062-1.4219 1.9688 1.2031-1.4219 0.16406-0.21875-0.38281 0.4375-0.76562 0.92969-1.1484 1.3672-0.92969 1.0938-1.8594 2.1875-2.8438 3.2266-1.5859 1.75-3.2812 3.4453-5.0312 5.0859-0.98438 0.875-1.9141 1.75-2.9531 2.625-0.4375 0.38281-0.92969 0.76562-1.3672 1.1484-0.38281 0.32812-0.76562 0.60156-1.0938 0.875 1.2031-0.875 1.4219-1.0938 0.82031-0.60156-4.2656 2.9531-8.4219 5.8516-13.07 8.2031-1.0938 0.54687-2.1328 1.0938-3.2266 1.5859-0.4375 0.21875-1.4766 0.875-1.9688 0.875 0.16406 0 2.4609-0.98438 0.60156-0.27344-2.5156 0.98437-5.0312 1.8594-7.6016 2.625-2.5703 0.76562-5.25 1.4219-7.875 1.9688-1.2031 0.21875-2.4609 0.4375-3.6641 0.65625-2.0234 0.32812 0.49219 0 0.65625-0.054688-0.76563 0.32812-2.1328 0.27344-3.0078 0.32812-5.3047 0.49219-10.719 0.54688-16.023 0.054687-1.0938-0.10937-2.7344 0.054688-3.7734-0.38281 0.49219 0.054688 0.92969 0.10938 1.4219 0.16406-0.49219-0.054687-0.98438-0.16406-1.4766-0.21875-0.60156-0.10937-1.2031-0.21875-1.8594-0.32812-2.7891-0.49219-5.5234-1.1484-8.2578-1.9688-2.3516-0.65625-4.6484-1.4766-6.9453-2.2969-0.54687-0.21875-1.0938-0.49219-1.6953-0.65625-1.5312-0.49219 2.5156 1.1484 0.27344 0.10938-1.3125-0.60156-2.625-1.2031-3.9375-1.8594-4.6484-2.2969-8.9688-5.0859-13.125-8.0938-0.10938-0.054687-0.21875-0.16406-0.27344-0.21875-0.92969-0.71094-0.76562-0.60156 0.49219 0.38281-0.4375-0.054687-1.3125-1.0938-1.6953-1.3672-0.92969-0.76563-1.8047-1.5312-2.6797-2.3516-1.9688-1.75-3.8281-3.6094-5.6328-5.5234-0.82031-0.875-1.5859-1.75-2.4062-2.6797-0.4375-0.49219-2.1875-2.0234-2.2969-2.7891 0.27344 0.38281 0.54688 0.71094 0.82031 1.0938-0.27344-0.38281-0.60156-0.76563-0.875-1.1484-0.27344-0.38281-0.54687-0.76562-0.82031-1.1484-0.82031-1.1484-1.6406-2.3516-2.4062-3.5547-1.4219-2.2422-2.7344-4.4844-3.9922-6.8359-0.54687-1.0938-1.0938-2.1328-1.5859-3.2266-0.21875-0.4375-0.38281-0.875-0.60156-1.3125s-0.38281-0.875-0.60156-1.3125c0.60156 1.4766 0.71094 1.6953 0.27344 0.60156-1.8594-4.8125-3.3906-9.6797-4.4297-14.766-0.27344-1.2031-0.49219-2.4609-0.65625-3.6641-0.054688-0.27344-0.054688-0.49219-0.10938-0.76562-0.16406-1.2031-0.16406-0.98438 0.054687 0.65625-0.21875-0.49219-0.16406-1.3125-0.21875-1.8594-0.32812-2.8984-0.49219-5.7969-0.49219-8.75v-1.5859-6.9453-30.188-89.578-58.133-1.6953c0-2.5703 0.16406-5.0859 0.38281-7.6016 0.054687-0.76563 0.16406-1.4766 0.21875-2.2422 0.16406-1.5312-0.38281 0.10938-0.10938 0.65625-0.38281-0.76562 0.60156-3.4453 0.76563-4.4297 1.0391-5.3047 2.6797-10.391 4.5938-15.477 0.4375-1.0938-0.21875-0.76562-0.27344 0.60156 0-0.54687 0.65625-1.4766 0.875-1.9688 0.49219-1.0938 1.0391-2.1875 1.5859-3.2266 1.2031-2.3516 2.5156-4.6484 3.9375-6.8906 1.2578-2.0234 2.6797-3.9922 4.0469-5.9062 1.4766-2.0234-1.5859 1.9141 0.054688-0.054687 0.38281-0.4375 0.76562-0.92969 1.1484-1.3672 0.92969-1.0938 1.8594-2.1875 2.8438-3.2266 1.6953-1.8594 3.4453-3.6094 5.3047-5.3047 0.875-0.82031 1.75-1.5859 2.6797-2.3516 0.4375-0.38281 0.92969-0.76563 1.3672-1.1484 2.1328-1.8047-1.4219 1.0391 0.32812-0.27344 4.1016-2.9531 8.3125-5.6875 12.797-7.9844 1.2031-0.60156 2.3516-1.2031 3.6094-1.75 0.4375-0.21875 1.2031-0.71094 1.6406-0.71094-0.4375 0.16406-0.875 0.38281-1.2578 0.54688 0.4375-0.16406 0.875-0.38281 1.3672-0.54688 2.5156-0.98438 5.0312-1.8594 7.6016-2.5703 2.3516-0.65625 4.7578-1.2578 7.1641-1.75 1.2031-0.21875 2.4609-0.4375 3.6641-0.65625 2.625-0.4375-2.5703 0.27344 0.054688 0 0.76562-0.10938 1.4766-0.16406 2.2422-0.21875 5.5781-0.54688 11.211-0.54688 16.789 0 0.98438 0.10937 4.7031 0.92969 1.5859 0.16406 1.2031 0.32812 2.4609 0.38281 3.6641 0.60156 2.6797 0.49219 5.3047 1.1484 7.9297 1.9141 2.3516 0.65625 4.6484 1.4766 6.9453 2.2969 0.4375 0.16406 1.75 0.4375 2.0234 0.82031-0.4375-0.16406-0.875-0.38281-1.2578-0.54687 0.32812 0.16406 0.65625 0.27344 0.98438 0.4375 1.3125 0.60156 2.625 1.2031 3.9375 1.8594 4.5938 2.3516 8.9141 5.0859 13.125 8.1484 1.9688 1.4219-1.4219-1.2031-0.21875-0.16406 0.4375 0.38281 0.92969 0.76562 1.3672 1.1484 0.92969 0.76562 1.8047 1.5312 2.6797 2.3516 1.9688 1.75 3.8281 3.6094 5.6328 5.5234 0.875 0.98438 1.75 1.9141 2.625 2.9531 0.38281 0.4375 0.76562 0.92969 1.1484 1.3672 0.16406 0.16406 0.27344 0.38281 0.4375 0.54687 0.71094 0.92969 0.60156 0.76563-0.38281-0.54687 0.82031 0.54687 1.5312 2.0781 2.1328 2.8984 0.82031 1.1484 1.6406 2.3516 2.4062 3.6094 1.2578 2.0234 2.4609 4.1016 3.6094 6.2344 0.54688 1.0938 1.0938 2.1328 1.5859 3.2266 0.32812 0.65625 0.60156 1.3125 0.875 1.9688 1.0391 2.2969-0.875-2.2969 0 0.054687 1.9141 5.0312 3.5547 10.172 4.5938 15.477 0.21875 1.2031 0.4375 2.4609 0.65625 3.6641 0.32812 2.0234 0-0.49219-0.054688-0.65625 0.27344 0.54688 0.21875 1.6406 0.27344 2.2422 0.27344 2.7891 0.4375 5.5781 0.49219 8.3672v4.3203 25.375 87.664 66.445 3.5547c0 5.7422 5.0312 11.211 10.938 10.938s10.938-4.8125 10.938-10.938v-51.242-92.312-33.25c0-8.3672-0.054687-16.516-1.2031-24.828-3.1719-22.367-14.766-43.641-31.664-58.625-17.828-15.75-40.688-24.883-64.531-25.32-23.953-0.38281-47.086 8.2031-65.461 23.461-17.281 14.328-29.586 35.383-33.359 57.531-1.5312 8.9688-1.6953 17.719-1.6953 26.742v32.211 92.203c0 17.828-0.054687 35.602 0 53.43 0.054688 22.805 7.9844 44.461 22.094 62.289 13.945 17.609 34.617 30.242 56.656 34.672 23.68 4.7031 48.508 0.98437 69.508-11.047 20.289-11.648 35.602-30.352 43.75-52.172 3.9922-10.664 5.8516-22.258 5.9062-33.633 0-5.7422-5.0312-11.211-10.938-10.938-5.9609 0.16406-10.938 4.7031-10.938 10.828z"/>
  <path d="m185.06 304.23c0.10938 33.141 10.117 66.773 29.422 93.898 5.25 7.3281 10.883 14.438 17.117 20.945 6.2344 6.4531 13.07 12.086 20.18 17.5 13.07 9.9531 27.562 17.391 42.984 23.078 31.609 11.648 67.648 12.523 100.02 3.3906 31.281-8.8594 60.484-27.344 81.211-52.5 5.5781-6.7812 10.883-13.891 15.422-21.383 4.7578-7.8203 8.4766-16.078 11.977-24.555 6.3984-15.531 9.7344-32.102 11.102-48.836 0.32812-3.8281 0.4375-7.6562 0.4375-11.484 0.054688-11.43-10.062-22.422-21.875-21.875-11.867 0.54688-21.82 9.625-21.875 21.875 0 6.3438-0.4375 12.688-1.2578 18.977 0.27344-1.9141 0.54687-3.8828 0.76562-5.7969-1.6953 12.688-5.0859 25.047-10.062 36.859 0.71094-1.75 1.4766-3.5 2.1875-5.25-4.8125 11.266-11.047 21.875-18.539 31.609 1.1484-1.4766 2.2969-2.9531 3.4453-4.4297-7.4922 9.625-16.133 18.266-25.758 25.758 1.4766-1.1484 2.9531-2.2969 4.4297-3.4453-9.7344 7.4922-20.344 13.727-31.609 18.539 1.75-0.71094 3.5-1.4766 5.25-2.1875-11.812 4.9766-24.172 8.3672-36.859 10.062 1.9141-0.27344 3.8828-0.54687 5.7969-0.76562-12.578 1.6406-25.375 1.6406-37.953 0 1.9141 0.27344 3.8828 0.54687 5.7969 0.76562-12.688-1.6953-25.047-5.0859-36.859-10.062 1.75 0.71094 3.5 1.4766 5.25 2.1875-11.266-4.8125-21.875-11.047-31.609-18.539 1.4766 1.1484 2.9531 2.2969 4.4297 3.4453-9.625-7.4922-18.266-16.133-25.758-25.758 1.1484 1.4766 2.2969 2.9531 3.4453 4.4297-7.4922-9.7344-13.727-20.344-18.539-31.609 0.71094 1.75 1.4766 3.5 2.1875 5.25-4.9766-11.812-8.3672-24.172-10.062-36.859 0.27344 1.9141 0.54687 3.8828 0.76562 5.7969-0.82031-6.2891-1.2578-12.633-1.2578-18.977-0.054688-11.43-10.062-22.422-21.875-21.875-11.812 0.49219-21.875 9.5703-21.875 21.82z"/>
  <path d="m371.88 528.83v-71.531-10.008c0-11.43-10.062-22.422-21.875-21.875-11.867 0.54688-21.875 9.625-21.875 21.875v71.531 10.008c0 11.43 10.062 22.422 21.875 21.875 11.867-0.54688 21.875-9.625 21.875-21.875z"/>
  <path d="m258.51 550.7h61.906 98.547 22.477c11.43 0 22.422-10.062 21.875-21.875-0.54688-11.867-9.625-21.875-21.875-21.875h-61.906-98.547-22.477c-11.43 0-22.422 10.062-21.875 21.875 0.54688 11.867 9.625 21.875 21.875 21.875z"/>
  <use x="70" y="568.203125" xlink:href="#v"/>
  <use x="72.007812" y="568.203125" xlink:href="#f"/>
  <use x="73.355469" y="568.203125" xlink:href="#a"/>
  <use x="75.210937" y="568.203125" xlink:href="#e"/>
  <use x="77.054688" y="568.203125" xlink:href="#d"/>
  <use x="78.363281" y="568.203125" xlink:href="#a"/>
  <use x="80.214844" y="568.203125" xlink:href="#k"/>
  <use x="83.125" y="568.203125" xlink:href="#j"/>
  <use x="85.082031" y="568.203125" xlink:href="#i"/>
  <use x="87.816406" y="568.203125" xlink:href="#c"/>
  <use x="89.445312" y="568.203125" xlink:href="#b"/>
  <use x="91.390625" y="568.203125" xlink:href="#e"/>
  <use x="93.238281" y="568.203125" xlink:href="#c"/>
  <use x="94.863281" y="568.203125" xlink:href="#b"/>
  <use x="96.8125" y="568.203125" xlink:href="#e"/>
  <use x="98.65625" y="568.203125" xlink:href="#h"/>
  <use x="100.601562" y="568.203125" xlink:href="#u"/>
  <use x="103.375" y="568.203125" xlink:href="#c"/>
  <use x="105" y="568.203125" xlink:href="#t"/>
  <use x="105.9375" y="568.203125" xlink:href="#h"/>
  <use x="107.882812" y="568.203125" xlink:href="#s"/>
  <use x="109.84375" y="568.203125" xlink:href="#b"/>
  <use x="70" y="570.9375" xlink:href="#r"/>
  <use x="71.191406" y="570.9375" xlink:href="#f"/>
  <use x="72.539062" y="570.9375" xlink:href="#g"/>
  <use x="74.417969" y="570.9375" xlink:href="#q"/>
  <use x="78.21875" y="570.9375" xlink:href="#d"/>
  <use x="79.523438" y="570.9375" xlink:href="#b"/>
  <use x="81.472656" y="570.9375" xlink:href="#a"/>
  <use x="84.277344" y="570.9375" xlink:href="#p"/>
  <use x="86.566406" y="570.9375" xlink:href="#g"/>
  <use x="88.445312" y="570.9375" xlink:href="#o"/>
  <use x="90.390625" y="570.9375" xlink:href="#h"/>
  <use x="93.289062" y="570.9375" xlink:href="#n"/>
  <use x="95.292969" y="570.9375" xlink:href="#f"/>
  <use x="96.644531" y="570.9375" xlink:href="#g"/>
  <use x="98.519531" y="570.9375" xlink:href="#m"/>
  <use x="99.457031" y="570.9375" xlink:href="#a"/>
  <use x="101.3125" y="570.9375" xlink:href="#l"/>
  <use x="102.933594" y="570.9375" xlink:href="#d"/>
 </g>
</svg>
