<svg xmlns="http://www.w3.org/2000/svg" width="142.81" height="99.965" viewBox="0 0 142.81 99.965">
  <defs>
    <style>
      .cls-1 {
        fill: #fff;
      }
    </style>
  </defs>
  <g id="ic_record" transform="translate(0)">
    <path id="패스_299" data-name="패스 299" class="cls-1" d="M229.214,117.456a2.287,2.287,0,0,0-2.213-.1l-21.256,10.307V110.459a14.423,14.423,0,0,0-14.59-14.21H102.088a14.423,14.423,0,0,0-14.59,14.21V182a14.423,14.423,0,0,0,14.59,14.21h89.066A14.423,14.423,0,0,0,205.745,182V164.8L227,175.1a2.287,2.287,0,0,0,2.213-.1,2.258,2.258,0,0,0,1.093-1.928v-53.7a2.258,2.258,0,0,0-1.094-1.929ZM104.16,115.29a4.76,4.76,0,1,1,4.76-4.76,4.76,4.76,0,0,1-4.76,4.76Zm42.462,46.556a15.622,15.622,0,1,1,16.116-15.614A15.891,15.891,0,0,1,146.621,161.846Z" transform="translate(-87.498 -96.249)"/>
  </g>
</svg>
