<svg xmlns="http://www.w3.org/2000/svg" width="139.637" height="139.635" viewBox="0 0 139.637 139.635">
  <defs>
    <style>
      .cls-1 {
        fill: #fff;
      }
    </style>
  </defs>
  <g id="ic_screenshot" transform="translate(0 0)">
    <path id="패스_321" data-name="패스 321" class="cls-1" d="M320.973,42.375h53.19a3.174,3.174,0,0,1,3.174,3.173v4.158a3.173,3.173,0,0,0,6.347,0V42.375H393.2a3.173,3.173,0,0,0,0-6.347h-9.521V26.507a3.173,3.173,0,0,0-6.347,0v9.521H320.975a3.173,3.173,0,0,0,0,6.347Z" transform="translate(-256.741 -23.332)"/>
    <path id="패스_322" data-name="패스 322" class="cls-1" d="M374.108,185.657A13.456,13.456,0,1,1,360.652,172.2a13.456,13.456,0,0,1,13.456,13.457" transform="translate(-278.14 -131.704)"/>
    <path id="패스_323" data-name="패스 323" class="cls-1" d="M229.791,251.03h-9.521v-77.4a3.173,3.173,0,1,0-6.347,0v48.142l-6.157-8.251h0a7.268,7.268,0,0,0-11.076-.571l-13.233,14.534a7.267,7.267,0,0,1-10.917-.318l-14.408-17.708a7.3,7.3,0,0,0-10.853-.476l-34.911,35.7V201.615a3.173,3.173,0,1,0-6.347,0v49.412H96.5a3.173,3.173,0,1,0,0,6.347h9.521v9.521a3.173,3.173,0,0,0,6.347,0v-9.521H213.923v9.521a3.173,3.173,0,0,0,6.347,0v-9.521h9.521a3.173,3.173,0,1,0,0-6.347Z" transform="translate(-93.328 -130.433)"/>
    <path id="패스_324" data-name="패스 324" class="cls-1" d="M96.507,42.369h9.521V77.658a3.173,3.173,0,0,0,6.347,0V45.541a3.175,3.175,0,0,1,3.174-3.174h25.2a3.173,3.173,0,1,0,0-6.347H112.375V26.5a3.173,3.173,0,0,0-6.347,0V36.02H96.507a3.173,3.173,0,0,0,0,6.347Z" transform="translate(-93.332 -23.326)"/>
  </g>
</svg>
