<?xml version="1.0" encoding="UTF-8"?>
<svg width="700pt" height="700pt" version="1.1" viewBox="0 0 700 700" xmlns="http://www.w3.org/2000/svg" xmlns:xlink="http://www.w3.org/1999/xlink">
 <defs>
  <symbol id="h" overflow="visible">
   <path d="m39.078-2.3281c-2.0117 1.043-4.1094 1.8281-6.2969 2.3594s-4.4648 0.79688-6.8281 0.79688c-7.0859 0-12.699-1.9766-16.844-5.9375-4.1367-3.957-6.2031-9.3281-6.2031-16.109 0-6.7891 2.0664-12.164 6.2031-16.125 4.1445-3.9688 9.7578-5.9531 16.844-5.9531 2.3633 0 4.6406 0.26562 6.8281 0.79688s4.2852 1.3242 6.2969 2.375v8.7969c-2.0312-1.3828-4.0391-2.3984-6.0156-3.0469-1.9688-0.64453-4.0469-0.96875-6.2344-0.96875-3.9062 0-6.9844 1.2578-9.2344 3.7656-2.2422 2.5-3.3594 5.9531-3.3594 10.359 0 4.3867 1.1172 7.8359 3.3594 10.344 2.25 2.5 5.3281 3.75 9.2344 3.75 2.1875 0 4.2656-0.32031 6.2344-0.96875 1.9766-0.64453 3.9844-1.6602 6.0156-3.0469z"/>
  </symbol>
  <symbol id="g" overflow="visible">
   <path d="m16.031-40.953v9.0625h10.516v7.2812h-10.516v13.531c0 1.4805 0.28906 2.4805 0.875 3 0.59375 0.52344 1.7656 0.78125 3.5156 0.78125h5.2344v7.2969h-8.7344c-4.0312 0-6.8867-0.83594-8.5625-2.5156-1.6797-1.6875-2.5156-4.5391-2.5156-8.5625v-13.531h-5.0781v-7.2812h5.0781v-9.0625z"/>
  </symbol>
  <symbol id="f" overflow="visible">
   <path d="m26.594-27.234v-17.078h10.266v44.312h-10.266v-4.6094c-1.3984 1.875-2.9453 3.25-4.6406 4.125-1.6875 0.875-3.6406 1.3125-5.8594 1.3125-3.9297 0-7.1562-1.5625-9.6875-4.6875-2.5234-3.125-3.7812-7.1445-3.7812-12.062 0-4.9141 1.2578-8.9375 3.7812-12.062 2.5312-3.125 5.7578-4.6875 9.6875-4.6875 2.1953 0 4.1445 0.44531 5.8438 1.3281 1.707 0.88672 3.2578 2.2578 4.6562 4.1094zm-6.7188 20.656c2.1875 0 3.8516-0.79688 5-2.3906 1.1445-1.5938 1.7188-3.9102 1.7188-6.9531 0-3.0391-0.57422-5.3594-1.7188-6.9531-1.1484-1.5938-2.8125-2.3906-5-2.3906-2.168 0-3.8242 0.79688-4.9688 2.3906-1.1484 1.5938-1.7188 3.9141-1.7188 6.9531 0 3.043 0.57031 5.3594 1.7188 6.9531 1.1445 1.5938 2.8008 2.3906 4.9688 2.3906z"/>
  </symbol>
  <symbol id="e" overflow="visible">
   <path d="m21.875-6.5781c2.1758 0 3.8359-0.79688 4.9844-2.3906 1.1562-1.5938 1.7344-3.9102 1.7344-6.9531 0-3.0391-0.57812-5.3594-1.7344-6.9531-1.1484-1.5938-2.8086-2.3906-4.9844-2.3906-2.1875 0-3.8672 0.80469-5.0312 2.4062-1.168 1.6055-1.75 3.918-1.75 6.9375 0 3.0234 0.58203 5.3359 1.75 6.9375 1.1641 1.6055 2.8438 2.4062 5.0312 2.4062zm-6.7812-20.656c1.4062-1.8516 2.9609-3.2227 4.6719-4.1094 1.707-0.88281 3.6719-1.3281 5.8906-1.3281 3.9375 0 7.1641 1.5625 9.6875 4.6875 2.5195 3.125 3.7812 7.1484 3.7812 12.062 0 4.918-1.2617 8.9375-3.7812 12.062-2.5234 3.125-5.75 4.6875-9.6875 4.6875-2.2188 0-4.1836-0.44531-5.8906-1.3281-1.7109-0.88281-3.2656-2.2539-4.6719-4.1094v4.6094h-10.188v-44.312h10.188z"/>
  </symbol>
  <symbol id="d" overflow="visible">
   <path d="m5.3594-42.516h10.953v34.234h19.266v8.2812h-30.219z"/>
  </symbol>
  <symbol id="c" overflow="visible">
   <path d="m4.9062-44.312h10.188v44.312h-10.188z"/>
  </symbol>
  <symbol id="b" overflow="visible">
   <path d="m0.28125-42.516h39.188v8.2812h-14.094v34.234h-10.969v-34.234h-14.125z"/>
  </symbol>
  <symbol id="a" overflow="visible">
   <path d="m4.9062-31.891h10.188v31.891h-10.188zm0-12.422h10.188v8.3125h-10.188z"/>
  </symbol>
 </defs>
 <g>
  <path d="m329.46 93.332h195.54c3.0938 0 6.0625 1.2305 8.25 3.418s3.418 5.1562 3.418 8.25v15.285c0 6.4414 5.2227 11.664 11.664 11.664 6.4453 0 11.668-5.2227 11.668-11.664v-26.953h35c6.4414 0 11.668-5.2227 11.668-11.664 0-6.4453-5.2266-11.668-11.668-11.668h-35v-35c0-6.4414-5.2227-11.668-11.668-11.668-6.4414 0-11.664 5.2266-11.664 11.668v35h-207.2c-6.4414 0-11.664 5.2227-11.664 11.668 0 6.4414 5.2227 11.664 11.664 11.664z"/>
  <path d="m446.13 221.67c0 27.32-22.145 49.465-49.465 49.465-27.32 0-49.469-22.145-49.469-49.465 0-27.32 22.148-49.469 49.469-49.469 27.32 0 49.465 22.148 49.465 49.469"/>
  <path d="m595 466.67h-35v-284.55c0-6.4453-5.2227-11.668-11.668-11.668-6.4414 0-11.664 5.2227-11.664 11.668v176.98l-22.633-30.332v-0.003906c-4.7617-6.2461-12.031-10.078-19.875-10.484-7.8398-0.40234-15.465 2.6641-20.844 8.3867l-48.648 53.434c-5.2383 5.625-12.648 8.7227-20.332 8.5-7.6836-0.22266-14.898-3.7461-19.801-9.668l-52.969-65.102c-4.8359-5.8867-11.945-9.4414-19.559-9.7734-7.6133-0.33594-15.008 2.582-20.34 8.0234l-128.34 131.25v-158.32c0-6.4414-5.2227-11.664-11.664-11.664-6.4453 0-11.668 5.2227-11.668 11.664v181.65h-35c-6.4414 0-11.668 5.2227-11.668 11.664 0 6.4453 5.2266 11.668 11.668 11.668h35v35c0 6.4414 5.2227 11.668 11.668 11.668 6.4414 0 11.664-5.2266 11.664-11.668v-35h373.34v35c0 6.4414 5.2227 11.668 11.664 11.668 6.4453 0 11.668-5.2266 11.668-11.668v-35h35c6.4414 0 11.668-5.2227 11.668-11.668 0-6.4414-5.2266-11.664-11.668-11.664z"/>
  <path d="m105 93.332h35v129.73c0 6.4453 5.2227 11.668 11.668 11.668 6.4414 0 11.664-5.2227 11.664-11.668v-118.07c0-6.4414 5.2266-11.668 11.668-11.668h92.633c6.4453 0 11.668-5.2227 11.668-11.664 0-6.4453-5.2227-11.668-11.668-11.668h-104.3v-35c0-6.4414-5.2227-11.668-11.664-11.668-6.4453 0-11.668 5.2266-11.668 11.668v35h-35c-6.4414 0-11.668 5.2227-11.668 11.668 0 6.4414 5.2266 11.664 11.668 11.664z"/>
  <use x="70" y="735" xlink:href="#h"/>
  <use x="220.503906" y="735" xlink:href="#g"/>
  <use x="287.953125" y="735" xlink:href="#f"/>
  <use x="350.015625" y="735" xlink:href="#e"/>
  <use x="450.105469" y="735" xlink:href="#d"/>
  <use x="526.640625" y="735" xlink:href="#c"/>
  <use x="608.472656" y="735" xlink:href="#b"/>
  <use x="677.03125" y="735" xlink:href="#a"/>
 </g>
</svg>
